<?xml version="1.0" encoding="utf-8"?>
<!-- Generator: Adobe Illustrator 24.0.1, SVG Export Plug-In . SVG Version: 6.00 Build 0)  -->
<svg version="1.1" id="Layer_1" xmlns="http://www.w3.org/2000/svg" xmlns:xlink="http://www.w3.org/1999/xlink" x="0px" y="0px"
	 viewBox="0 0 48 24" style="enable-background:new 0 0 48 24;" xml:space="preserve">
<style type="text/css">
	.st0{fill:#707070;}
	.st1{opacity:0;}
	.st2{fill:none;}
	.st3{fill:none;stroke:#707070;}
	.st4{fill:#0064C1;}
</style>
<g id="Group_543" transform="translate(-228 -151)">
	<path id="Shape_5240" class="st0" d="M246.8,158c-0.3,0-0.6,0.1-0.8,0.3l-6,5.9l-6-5.9c-0.5-0.4-1.2-0.4-1.6,0.1
		c-0.4,0.5-0.4,1.2,0,1.6l6.8,6.7c0.4,0.4,1.2,0.4,1.6,0l6.8-6.7c0.5-0.4,0.5-1.2,0-1.6C247.4,158.1,247.1,158,246.8,158z"/>
	<g id="Rectangle_169" transform="translate(228 151)" class="st1">
		<rect y="0" class="st2" width="24" height="24"/>
		<rect x="0.5" y="0.5" class="st3" width="23" height="23"/>
	</g>
</g>
<g id="Group_543_1_" transform="translate(-228 -151)">
	<path id="Shape_5240_1_" class="st4" d="M257.2,167c0.3,0,0.6-0.1,0.8-0.3l6-5.9l6,5.9c0.5,0.4,1.2,0.4,1.6-0.1
		c0.4-0.5,0.4-1.2,0-1.6l-6.8-6.7c-0.4-0.4-1.2-0.4-1.6,0l-6.8,6.7c-0.5,0.4-0.5,1.2,0,1.6C256.6,166.9,256.9,167,257.2,167z"/>
	<g id="Rectangle_169_1_" transform="translate(228 151)" class="st1">
		<rect x="24" y="0" class="st2" width="24" height="24"/>
		<rect x="24.5" y="0.5" class="st3" width="23" height="23"/>
	</g>
</g>
</svg>
